<svg id="Layer_1" enable-background="new 0 0 512 512" height="512" viewBox="0 0 512 512" width="512" xmlns="http://www.w3.org/2000/svg"><path d="m25.641 274.671h449.717c7.102 0 13.798 1.486 19.852 4.118.185-3.907.288-7.835.288-11.787 0-135.309-109.69-244.998-244.998-244.998-135.31 0-244.999 109.689-244.999 244.998 0 3.954.102 7.883.288 11.791 6.057-2.635 12.755-4.122 19.852-4.122z" fill="#2d3c6b"/><path d="m86.531 449.032c43.421 39.137 100.909 62.968 163.968 62.968s120.547-23.831 163.968-62.968z" fill="#e80054"/><path d="m250.499 512c15.337 0 30.341-1.421 44.897-4.117-.644-.739-1.456-1.337-2.407-1.71-33.641-13.201-25.489-39.384-20.597-49.775 1.09-2.315.707-5.107-1.091-6.927-.144-.145-.271-.292-.401-.439h-184.369c43.421 39.137 100.909 62.968 163.968 62.968z" fill="#cc0053"/><path d="m204.466 86.17h63.204l-76.683 174.445c-3.345 7.609-4.311 15.654-3.233 23.313h87.111l98.251-223.506c12.494-28.424-8.35-60.422-39.442-60.422h-129.208c-23.756 0-43.084 19.327-43.084 43.084 0 23.758 19.328 43.086 43.084 43.086z" fill="#73c3f9"/><path d="m346.343 121.328c-9.28 6.268-15.718 4.208-19.358 1.597-2.668-1.914-6.071-2.447-9.153-1.314-18.765 6.897-29.086.724-33.999-4.409-2.511-2.624-6.35-3.608-9.796-2.46-8.53 2.841-13.14-.152-15.285-2.507-.55-.604-1.176-1.122-1.856-1.555l-65.909 149.936c-3.345 7.609-4.311 15.654-3.233 23.313h87.111z" fill="#4fabf7"/><path d="m68.112 179.042h12.114l-35.859 81.573c-3.345 7.609-4.311 15.654-3.234 23.313h87.112l57.424-130.632c12.498-28.426-8.359-60.424-39.441-60.424h-78.116c-23.756 0-43.084 19.327-43.084 43.085 0 23.757 19.328 43.085 43.084 43.085z" fill="#73c3f9"/><path d="m132.314 274.671 31.467-71.583c-12.862 10.12-19.253 6.459-22.022 3.092-1.295-1.573-3.564-1.939-5.323-.911-23.373 13.67-35.646 4.454-40.196-.767-1.32-1.515-3.545-1.867-5.273-.844-12.405 7.345-17.233 1.13-18.866-2.415-.247-.535-.603-.996-1.03-1.373l-26.702 60.744c-2.017 4.587-3.154 9.332-3.514 14.056h91.459z" fill="#4fabf7"/><path d="m385.261 179.042h12.112l-35.858 81.572c-3.346 7.609-4.312 15.655-3.234 23.315h87.112l57.424-130.632c12.494-28.423-8.348-60.424-39.441-60.424h-78.115c-23.757 0-43.084 19.327-43.084 43.085 0 23.756 19.327 43.084 43.084 43.084z" fill="#73c3f9"/><path d="m463.376 114.682h-78.115c-11.731 0-21.274 9.545-21.274 21.276s9.544 21.274 21.274 21.274h34.567c5.147 0 8.631 5.291 6.547 10.03l-44.894 102.128c-2.503 5.694-2.389 12.18.315 17.794l2.046 4.249h29.503l4.678.042 2.052-4.226c.136-.258.264-.518.358-.736l62.42-141.995c6.168-14.029-4.108-29.836-19.477-29.836z" fill="#2e8be6"/><path d="m333.673 21.81h-129.207c-11.731 0-21.275 9.543-21.275 21.274 0 11.732 9.545 21.276 21.275 21.276h85.658c5.132 0 8.636 5.279 6.547 10.029l-85.72 195.003c-2.502 5.694-2.386 12.179.317 17.793l2.046 4.249h29.502l4.677.043 2.053-4.226c.129-.245.251-.492.359-.737l103.246-234.869c6.167-14.031-4.109-29.835-19.478-29.835z" fill="#2e8be6"/><path d="m317.832 121.611c-18.765 6.897-29.086.724-33.999-4.409-1.317-1.376-3.001-2.287-4.799-2.69l-68.083 154.88c-2.503 5.694-2.386 12.179.317 17.793l2.046 4.249h29.502l4.677.043 2.053-4.226c.129-.245.251-.492.359-.737l72.699-165.38c-1.581-.24-3.217-.094-4.772.477z" fill="#157dd1"/><path d="m146.228 114.682h-78.116c-11.731 0-21.275 9.545-21.275 21.276s9.545 21.274 21.275 21.274h34.567c5.147 0 8.631 5.291 6.547 10.03l-44.894 102.13c-2.502 5.694-2.387 12.179.316 17.793l2.046 4.249h29.503l4.699.062 2.041-4.264c.125-.239.244-.479.349-.717l62.42-141.995c6.164-14.031-4.108-29.838-19.478-29.838z" fill="#2e8be6"/><path d="m62.793 274.671h45.698l30.738-69.925c-.937-.148-1.927.017-2.794.524-23.373 13.67-35.646 4.454-40.196-.767-.726-.834-1.729-1.301-2.771-1.395l-29.137 66.284c-.748 1.704-1.258 3.479-1.538 5.279z" fill="#157dd1"/><path d="m449.454 274.671 31.467-71.583c-12.862 10.12-19.253 6.459-22.022 3.092-1.294-1.573-3.564-1.939-5.323-.911-23.373 13.67-35.646 4.454-40.196-.767-1.32-1.515-3.545-1.867-5.273-.844-12.405 7.345-17.233 1.13-18.866-2.415-.246-.535-.603-.996-1.03-1.373l-26.702 60.744c-2.017 4.587-3.155 9.332-3.514 14.056h91.459z" fill="#4fabf7"/><path d="m453.575 205.27c-23.373 13.67-35.646 4.454-40.196-.767-.727-.834-1.729-1.301-2.771-1.395l-29.137 66.284c-.749 1.704-1.259 3.479-1.54 5.279h45.698l30.739-69.925c-.936-.148-1.926.017-2.793.524z" fill="#157dd1"/><path d="m475.358 280.712h-449.717c-7.068 0-13.667 1.748-19.448 4.795 4.642 62.155 32.475 117.846 74.872 158.452h338.866c42.399-40.607 70.232-96.299 74.873-158.455-5.775-3.044-12.373-4.792-19.446-4.792z" fill="#ff4155"/><path d="m6.193 285.507c4.642 62.155 32.475 117.846 74.873 158.452h187.701c-.071-1.559.3-3.04.811-4.295.925-2.271.328-4.889-1.401-6.628-4.483-4.509-3.95-9.126-2.752-12.161.836-2.12.402-4.544-1.089-6.267-3.818-4.415-2.977-8.752-1.568-11.646 1.161-2.384.731-5.231-1.113-7.136l-32.123-33.193c-1.132-1.17-1.765-2.733-1.765-4.361v-28.885c0-2.133-1.112-4.079-2.879-5.273-7.313-4.946-4.702-12.654-3.313-15.624.414-.885.626-1.847.605-2.824l-.539-24.953h-196c-7.068-.001-13.667 1.747-19.448 4.794z" fill="#e80054"/><path d="m73.043 435.918c5.353 5.622 10.972 10.988 16.834 16.082h321.244c5.862-5.094 11.481-10.46 16.834-16.082z" fill="#ff7186"/><path d="m89.877 452h182.881c-.265-.935-.745-1.809-1.456-2.529-3.304-3.343-2.826-7.098-1.723-9.807.494-1.213.542-2.522.227-3.746h-196.763c5.353 5.622 10.972 10.988 16.834 16.082z" fill="#ff4155"/><path d="m25.641 272.671c-7.126 0-13.85 1.497-19.927 4.153.233 5.9.672 11.745 1.315 17.531 5.31-3.522 11.687-5.601 18.612-5.601h449.717c6.942 0 13.313 2.08 18.612 5.595.643-5.785 1.082-11.63 1.314-17.529-6.073-2.652-12.795-4.148-19.926-4.148h-449.717z" fill="#ff7186"/><path d="m25.641 272.671c-7.126 0-13.85 1.497-19.927 4.153.233 5.9.672 11.745 1.315 17.531 5.31-3.522 11.687-5.601 18.612-5.601h196.173l-.347-16.082h-195.826z" fill="#ff4155"/><path d="m57.1 417.406h386.797c22.265-28.588 38.322-62.241 46.168-98.941-1.759-6.366-7.583-11.199-14.707-11.199h-449.718c-7.125 0-12.95 4.835-14.707 11.202 7.847 36.698 23.903 70.351 46.167 98.938z" fill="#e80054"/><path d="m221.998 307.265h-196.357c-7.125 0-12.95 4.835-14.708 11.202 7.847 36.699 23.903 70.352 46.168 98.939h208.606c-.211-1.017-.669-1.987-1.372-2.798-3.818-4.415-2.977-8.752-1.568-11.646 1.161-2.384.731-5.231-1.113-7.136l-32.123-33.193c-1.132-1.17-1.765-2.733-1.765-4.361v-28.885c0-2.133-1.112-4.079-2.879-5.273-7.313-4.946-4.702-12.654-3.313-15.624.185-.395.323-.806.424-1.225z" fill="#cc0053"/><path d="m131.266 331.234c-.027-.073-.055-.146-.086-.218-1.449-3.524-4.845-5.801-8.655-5.801h-.009c-3.814.004-7.211 2.288-8.655 5.818-.024.06-.048.12-.071.18l-21.839 57.338c-1.581 4.15.502 8.796 4.652 10.377 4.148 1.582 8.796-.501 10.377-4.652l3.467-9.102h23.988l3.426 9.079c1.569 4.16 6.212 6.249 10.362 4.683 4.154-1.567 6.252-6.207 4.683-10.362zm-14.693 37.86 5.924-15.552 5.87 15.552z" fill="#ffb332"/><path d="m244.015 361.177 23.137-21.267c3.27-3.005 3.484-8.091.478-11.361-3.004-3.271-8.092-3.484-11.361-.479l-17.802 16.363v-11.177c0-4.441-3.6-8.041-8.041-8.041s-8.041 3.6-8.041 8.041v58.158c0 4.441 3.6 8.041 8.041 8.041s8.041-3.6 8.041-8.041v-13.244l19.726 19.03c3.179 3.068 8.27 3.008 11.37-.204 3.083-3.195 2.992-8.286-.204-11.37z" fill="#ffdd40"/><path d="m76.232 325.215c-4.441 0-8.041 3.6-8.041 8.041v46.482c0 1.406-.707 2.672-1.844 3.303-1.947 1.083-4.523-1.099-4.927-1.458l-.31-.326c-3.066-3.212-8.154-3.334-11.37-.269-3.213 3.066-3.334 8.155-.269 11.37l.453.475c6.297 6.467 16.022 8.824 24.228 4.27 6.242-3.466 10.12-10.119 10.12-17.365v-46.482c.001-4.441-3.598-8.041-8.04-8.041z" fill="#ffb332"/><path d="m213.625 377.042c-3.403-2.852-8.475-2.404-11.328 1-9.751 11.646-33.193 3.354-33.193-15.706 0-16.937 19.006-26.766 32.796-17.449 3.68 2.486 8.678 1.518 11.164-2.162 2.486-3.679 1.518-8.678-2.162-11.164-24.327-16.434-57.88.87-57.88 30.776 0 33.94 42.202 49.199 61.603 26.034 2.852-3.405 2.404-8.476-1-11.329z" fill="#ffb332"/><path d="m445.253 325.215h-32.117c-4.441 0-8.041 3.6-8.041 8.041s3.6 8.041 8.041 8.041h7.953v50.117c0 4.441 3.6 8.041 8.041 8.041s8.041-3.6 8.041-8.041v-50.117h8.082c4.441 0 8.041-3.6 8.041-8.041s-3.599-8.041-8.041-8.041z" fill="#ffdd40"/><path d="m303.266 325.215h-16.193c-4.423 0-8.041 3.598-8.041 8.041v58.158c0 4.441 3.6 8.041 8.041 8.041s8.041-3.6 8.041-8.041v-17.264c3.04-.015 6.24-.028 8.152-.028 13.661 0 24.775-10.97 24.775-24.453.001-13.484-11.113-24.454-24.775-24.454zm0 32.825c-1.899 0-5.06.013-8.083.027-.016-3.136-.029-6.442-.029-8.398 0-1.666-.007-5.082-.017-8.372h8.129c4.713 0 8.693 3.834 8.693 8.372.001 4.538-3.98 8.371-8.693 8.371z" fill="#ffdd40"/><path d="m368.825 325.215c-20.468 0-37.121 16.653-37.121 37.121s16.653 37.12 37.121 37.12 37.12-16.652 37.12-37.12c-.001-20.468-16.652-37.121-37.12-37.121zm0 58.159c-11.601 0-21.039-9.438-21.039-21.038 0-11.601 9.438-21.039 21.039-21.039 11.6 0 21.038 9.438 21.038 21.039-.001 11.6-9.438 21.038-21.038 21.038z" fill="#ffdd40"/><path d="m115.387 265.633c-2.134-2.08-.957-5.704 1.992-6.132l24.374-3.542c1.171-.17 2.183-.906 2.707-1.967l10.901-22.087c1.319-2.672 5.128-2.672 6.448 0l10.9 22.087c.524 1.061 1.536 1.797 2.707 1.967l24.373 3.542c2.949.428 4.126 4.052 1.992 6.132l-17.637 17.192c-.847.826-1.234 2.016-1.034 3.182l4.163 24.275c.504 2.937-2.579 5.177-5.216 3.79l-21.801-11.461c-1.047-.551-2.299-.551-3.346 0l-21.801 11.461c-2.637 1.387-5.72-.853-5.216-3.79l4.164-24.275c.2-1.166-.187-2.356-1.034-3.182z" fill="#ffb332"/><path d="m187.274 310.282-3.943-22.99c-3.673-.406-5.429-3.78-5.429-3.78-32.27 4.288-31.146-24.204-31.146-24.204-3.426-.23-5.185-1.611-6.064-3.195l-23.312 3.387c-2.949.428-4.126 4.052-1.992 6.132l17.637 17.192c.847.826 1.234 2.016 1.034 3.182l-4.164 24.275c-.503 2.937 2.579 5.176 5.216 3.79l21.801-11.461c1.047-.551 2.299-.551 3.346 0l21.801 11.461c2.636 1.388 5.719-.852 5.215-3.789z" fill="#ff9100"/><path d="m124.611 309.376 4.007-23.36-16.973-16.545c-5.313-5.18-2.378-14.208 4.964-15.276l23.455-3.408 10.49-21.254c3.283-6.649 12.775-6.662 16.062.001l10.489 21.253 23.455 3.408c3.398.493 6.168 2.829 7.23 6.094 1.062 3.267.194 6.785-2.266 9.182l-16.972 16.544 4.006 23.361c1.256 7.313-6.43 12.895-12.993 9.441l-20.98-11.029-20.98 11.029c-6.538 3.44-14.255-2.102-12.994-9.441zm38.141-11.509 18.634 9.795-3.558-20.75c-.501-2.901.462-5.865 2.574-7.925l15.077-14.697-20.833-3.027c-2.916-.422-5.438-2.254-6.744-4.899l-9.317-18.879-9.317 18.879c-1.306 2.645-3.827 4.476-6.745 4.899l-20.832 3.027 15.076 14.696c2.111 2.056 3.074 5.019 2.576 7.926l-3.559 20.75 18.635-9.796c2.603-1.369 5.719-1.375 8.333.001zm-33.47-11.202h.011z" fill="#ffdd40"/><path d="m116.608 254.196c-7.342 1.068-10.277 10.096-4.964 15.276l16.973 16.545-4.007 23.36c-1.26 7.339 6.456 12.881 12.994 9.441l20.98-11.029 20.98 11.029c6.563 3.454 14.249-2.128 12.993-9.441l-4.006-23.361c-7.167 3.997-10.573-2.358-10.646-2.496-.237 1.102-.274 2.252-.077 3.393l3.558 20.75-18.634-9.795c-2.614-1.376-5.73-1.37-8.335-.001l-18.635 9.796 3.559-20.75c.498-2.906-.465-5.87-2.576-7.926l-15.076-14.696 20.832-3.027c1.571-.228 3.018-.874 4.231-1.825.002-.078.003-.131.003-.131-8.667-.583-6.692-8.521-6.692-8.521z" fill="#ffb332"/><path d="m299.218 265.633c-2.134-2.08-.956-5.704 1.992-6.132l24.374-3.542c1.171-.17 2.183-.906 2.707-1.967l10.901-22.087c1.319-2.672 5.129-2.672 6.448 0l10.9 22.087c.524 1.061 1.536 1.797 2.707 1.967l24.374 3.542c2.949.428 4.126 4.052 1.992 6.132l-17.637 17.192c-.847.826-1.234 2.016-1.034 3.182l4.163 24.275c.504 2.937-2.579 5.177-5.216 3.79l-21.801-11.461c-1.047-.551-2.298-.551-3.346 0l-21.801 11.461c-2.637 1.387-5.72-.853-5.216-3.79l4.164-24.275c.2-1.166-.187-2.356-1.034-3.182z" fill="#ffb332"/><path d="m371.105 310.282-3.943-22.99c-3.673-.406-5.429-3.78-5.429-3.78-32.27 4.288-31.147-24.204-31.147-24.204-3.426-.23-5.185-1.611-6.064-3.195l-23.312 3.387c-2.949.428-4.126 4.052-1.992 6.132l17.637 17.192c.847.826 1.234 2.016 1.034 3.182l-4.164 24.275c-.503 2.937 2.579 5.176 5.216 3.79l21.801-11.461c1.047-.551 2.299-.551 3.346 0l21.801 11.461c2.637 1.388 5.72-.852 5.216-3.789z" fill="#ff9100"/><path d="m308.442 309.376 4.007-23.36-16.973-16.545c-5.313-5.18-2.378-14.208 4.964-15.276l23.455-3.408 10.49-21.254c3.283-6.649 12.775-6.662 16.062.001l10.489 21.253 23.455 3.408c3.398.493 6.168 2.829 7.23 6.094 1.062 3.267.194 6.785-2.266 9.182l-16.972 16.544 4.006 23.361c1.256 7.313-6.43 12.895-12.993 9.441l-20.98-11.029-20.98 11.029c-6.538 3.44-14.255-2.102-12.994-9.441zm38.141-11.509 18.634 9.795-3.558-20.75c-.5-2.901.462-5.865 2.574-7.925l15.077-14.697-20.833-3.027c-2.916-.422-5.438-2.254-6.744-4.899l-9.317-18.879-9.317 18.879c-1.306 2.645-3.827 4.476-6.745 4.899l-20.832 3.027 15.076 14.696c2.111 2.056 3.074 5.019 2.576 7.926l-3.559 20.75 18.635-9.796c2.603-1.369 5.719-1.375 8.333.001zm-33.47-11.202h.012z" fill="#ffdd40"/><path d="m300.44 254.196c-7.342 1.068-10.277 10.096-4.964 15.276l16.973 16.545-4.007 23.36c-1.26 7.339 6.456 12.881 12.994 9.441l20.98-11.029 20.98 11.029c6.563 3.454 14.249-2.128 12.993-9.441l-4.006-23.361c-7.167 3.997-10.573-2.358-10.646-2.496-.237 1.102-.274 2.252-.077 3.393l3.558 20.75-18.634-9.795c-2.614-1.376-5.73-1.37-8.335-.001l-18.635 9.796 3.559-20.75c.499-2.906-.465-5.87-2.576-7.926l-15.076-14.696 20.832-3.027c1.571-.228 3.018-.874 4.231-1.825.001-.078.003-.131.003-.131-8.667-.583-6.692-8.521-6.692-8.521z" fill="#ffb332"/><path d="m179.664 227.144c-3.499-3.411-1.569-9.353 3.267-10.055l39.968-5.808c1.92-.279 3.58-1.485 4.438-3.225l17.875-36.217c2.163-4.382 8.41-4.382 10.573 0l17.874 36.217c.859 1.74 2.519 2.946 4.439 3.225l39.968 5.808c4.836.702 6.766 6.645 3.267 10.055l-28.921 28.191c-1.39 1.355-2.024 3.306-1.695 5.218l6.827 39.807c.826 4.816-4.229 8.489-8.554 6.215l-35.749-18.794c-1.717-.903-3.769-.903-5.486 0l-35.749 18.794c-4.325 2.274-9.38-1.399-8.554-6.215l6.828-39.807c.327-1.912-.306-3.863-1.696-5.218z" fill="#ffb332"/><path d="m297.545 300.36-6.828-39.807c-.021-.123-.027-.246-.04-.368-3.663-.77-4.865-4.072-4.865-4.072-51.61 10.138-56.89-41.638-56.89-41.638-3.32-.332-5.039-1.678-5.896-3.22-.042.007-.083.02-.126.026l-39.968 5.808c-4.835.703-6.766 6.645-3.267 10.055l28.921 28.191c1.39 1.355 2.023 3.306 1.696 5.218l-6.828 39.807c-.826 4.816 4.229 8.489 8.554 6.215l35.749-18.794c1.717-.903 3.769-.903 5.486 0l35.748 18.794c4.325 2.274 9.38-1.399 8.554-6.215z" fill="#ff9100"/><path d="m286.497 311.32-35.75-18.795c-.155-.082-.34-.082-.497 0l-35.748 18.795c-8.256 4.34-17.908-2.678-16.331-11.867l6.828-39.807c.029-.172-.027-.348-.153-.47l-28.923-28.194.001.001c-6.68-6.508-2.99-17.859 6.237-19.2l39.969-5.808c.174-.025.324-.134.401-.291l17.876-36.218c4.129-8.364 16.06-8.361 20.187 0l17.874 36.217c.078.158.228.267.402.292l39.968 5.808c9.231 1.342 12.916 12.693 6.237 19.2l-28.92 28.191c-.127.124-.183.298-.154.47l6.827 39.811c1.583 9.21-8.098 16.192-16.331 11.865zm-35.998-29.578c1.799 0 3.598.431 5.237 1.293l35.75 18.795c.103.054.294.155.562-.041.268-.195.233-.407.213-.521l-6.826-39.809c-.628-3.65.582-7.375 3.237-9.962l28.919-28.191c.084-.083.239-.232.136-.549-.103-.316-.316-.347-.431-.363l-39.967-5.808c-3.667-.532-6.836-2.834-8.477-6.158l-17.872-36.216c-.051-.104-.148-.298-.48-.298s-.428.195-.48.298l-17.874 36.217c-1.64 3.323-4.808 5.626-8.476 6.158l-39.967 5.808c-.443.065-.621.595-.296.911l.001.001 28.921 28.192c2.653 2.583 3.865 6.307 3.237 9.961l-6.827 39.808c-.019.114-.055.327.212.523.268.195.459.094.563.041l35.748-18.795c1.639-.863 3.438-1.295 5.237-1.295z" fill="#ffdd40"/><g fill="#ffb332"><path d="m175.923 230.983-.001-.001z"/><path d="m222.129 205.976-39.968 5.808c-9.227 1.342-12.917 12.692-6.238 19.2l28.922 28.193c.126.122.182.298.153.47l-6.828 39.807c-1.577 9.189 8.075 16.206 16.331 11.867l35.748-18.795c.157-.082.342-.082.498 0l35.75 18.795c8.233 4.326 17.914-2.655 16.33-11.866l-6.826-39.811c-7.909 2.79-10.182-3.51-10.189-3.529-.546 1.701-.69 3.531-.378 5.344l6.826 39.809c.02.114.056.327-.212.521-.268.196-.459.095-.562.041l-35.751-18.795c-1.64-.862-3.438-1.293-5.237-1.293s-3.598.431-5.238 1.293l-35.748 18.795c-.105.053-.295.154-.563-.041-.268-.196-.231-.408-.212-.522l6.828-39.809c.627-3.654-.584-7.378-3.237-9.961l-28.921-28.192-.001-.001c-.324-.316-.146-.846.296-.911l39.968-5.808c1.885-.273 3.634-1.021 5.116-2.129-8.583-.946-6.255-8.773-6.255-8.773-.078.159-.228.267-.402.293z"/><path d="m238.467 344.434v-11.177c0-4.441-3.6-8.041-8.041-8.041s-8.041 3.6-8.041 8.041v58.158c0 4.441 3.6 8.041 8.041 8.041s8.041-3.6 8.041-8.041v-13.244l19.726 19.03c3.179 3.068 8.27 3.008 11.369-.204 3.084-3.195 2.993-8.286-.204-11.37l-25.343-24.451c-13.158-5.297-5.548-16.742-5.548-16.742z"/></g></svg>